<svg xmlns="http://www.w3.org/2000/svg" width="134.47" height="49"><path d="M9.964 13.46H8.99v3.77h2v-3.762H9.964zm53.878 8.237h1.818c.582 0 1.018-.145 1.2-.48.364-.254.364-.971.509-2.047a2.682 2.682 0 001.636.916 4.788 4.788 0 01-1.091 2.421 3.141 3.141 0 01-1.818.378h-8.361c-1.563 0-2.326-.647-2.326-1.937v-11.8h11.814v7.812h-1.382v-1.08h-8.942v4.362c0 .974.509 1.454 1.527 1.454h5.416zm0-7.052h1.89v-4.249h-3.853v4.253h1.963zm-5.125 0h1.89v-4.249H56.79v4.253h1.927zm-12.4 7.052h1.818c.618 0 1.054-.145 1.2-.48.363-.254.363-.971.545-2.047a2.69 2.69 0 001.6.916 4.868 4.868 0 01-1.054 2.421 3.281 3.281 0 01-1.854.378h-8.319c-1.563 0-2.326-.647-2.326-1.937v-11.8h11.738v7.812h-1.381v-1.08h-8.942v4.362c0 .974.545 1.454 1.563 1.454h5.489zm0-7.052h1.89v-4.249h-3.812v4.253h1.927zm-5.125 0h1.89v-4.249h-3.813v4.253h1.927zm-12.4 7.11h2.8c.763-.036 1.563-.036 2.508-.036v1.294a21.345 21.345 0 00-2.508-.145H21.385a26.609 26.609 0 00-2.8.145v-1.29c1.072 0 1.988 0 2.8.036h4.144v-2.261h-3.068c-.647 0-1.454 0-2.374.036v-1.235c.916.036 1.727.109 2.374.145h3.068v-1.941h-5.118c.073-.883.109-2.017.109-3.308 0-1.236 0-2.69-.109-4.2h11.734v7.546h-5.322v1.939h3.286c.654-.036 1.454-.109 2.435-.145v1.236c-.981-.036-1.781-.036-2.435-.036h-3.286v2.261H28.8zm0-6.252h2V13.36h-3.969v2.156H28.8zm0-3.126h2v-2.359h-3.969v2.363zm-5.1 3.126h1.832V13.36h-3.659v2.156h1.832zm0-3.126h1.832v-2.359h-3.659v2.363zM9.964 18.415H8.99v1.672H7.699c.055-.7.055-1.992.055-3.875s0-3.181-.073-3.879h4.58c-.036.862-.036 2.047-.036 3.555s0 2.7.073 3.562h-1.295v-1.028H9.985zm0-8.346h3.66v10.665c0 .545-.109.862-.378.971a9.659 9.659 0 01-1.556.109 4.237 4.237 0 01.593 1.563 4.214 4.214 0 002.047-.483c.429-.218.593-.752.593-1.672V10.069c.436 0 1.08 0 1.89.036v-1.29c-.865.036-1.454.036-1.727.036H9.16c-.538 0-1.185 0-2.047-.036v1.29c1.025-.036 1.723-.036 2.047-.036h.811zm-6.035 4.144a11.137 11.137 0 011.614 2.966c.145.7.109 1.134-.145 1.294a4.956 4.956 0 01-1.563.436 5.805 5.805 0 01.592 1.451 5.234 5.234 0 001.818-.814 2.05 2.05 0 00.752-1.883 8.786 8.786 0 00-1.774-3.555c.538-1.781 1.018-3.5 1.5-5.227h-4.84c.073.916.073 3.235.073 6.841 0 3.664 0 6.194-.073 7.648h1.4v-13.3h1.831c-.436 1.618-.807 3.017-1.185 4.144m21.924 22.572V34.06h4.042v2.726h-4.042zm.1 11.374v-9.847h3.788v9.847h-3.78zm44.536-5.162a4.081 4.081 0 00-.691-2.181 2.526 2.526 0 00-2-.8 2.882 2.882 0 00-2 .8 3.382 3.382 0 00-.691 2.29 4.354 4.354 0 00.691 2.254 2.455 2.455 0 002 .763 2.84 2.84 0 002.036-.836 3.446 3.446 0 00.691-2.29zm-2.721-4.758h1.563a5 5 0 013.708 1.345 5.149 5.149 0 011.345 3.708 5.274 5.274 0 01-1.345 3.889 4.878 4.878 0 01-3.672 1.378 2.593 2.593 0 01-1.6-.364c-.363 0-.545-.364-.8-.364a5.135 5.135 0 01-1.89-1.563v1.891h-3.78v-14.1h3.744v5.634a5.806 5.806 0 011.927-1.234.727.727 0 00.763-.363zm42.857 1.236a3.677 3.677 0 013.635 3.671 3.635 3.635 0 01-7.27 0 3.7 3.7 0 013.635-3.671zm0 8.942a5.307 5.307 0 10-5.307-5.307 5.307 5.307 0 005.307 5.308zm-19.372-1.781h1.672v1.523h-1.672zm12.723.364a5.393 5.393 0 01-3.744 1.49 5.248 5.248 0 01-5.279-5.271 5.312 5.312 0 015.271-5.343 5.64 5.64 0 013.744 1.527 6 6 0 00-.727 1.708 3.635 3.635 0 100 4.144c.368.872.55 1.418.732 1.745zm14.322 1.236v-9.851h1.49v1.381a4.673 4.673 0 011.236-1.163 3.028 3.028 0 011.781-.436 2.4 2.4 0 011.781.436 2.661 2.661 0 011.018 1.272 3.527 3.527 0 013.017-1.708 3.611 3.611 0 012.29.8 3.611 3.611 0 01.8 2.545v6.725h-1.672v-6.217c0-.691 0-1.127-.364-1.454 0-.364-.363-.509-.582-.691-.363 0-.654-.364-1.018-.364a3.009 3.009 0 00-1.708.691 3.108 3.108 0 00-.727 2.217v5.707h-1.672v-6.433c0-.727 0-1.272-.364-1.636a1.635 1.635 0 00-1.345-.545 1.732 1.732 0 00-1.309.364 2.029 2.029 0 00-.836 1.091 3.364 3.364 0 00-.363 2.036v5.125h-1.708zm12.755-12.032v-1.89h.327v1.89h-.364zm1.309 0v-2.072h.4l.509 1.49.473-1.454h.363v2.072h-.363V34.46l-.582 1.781h-.363l-.582-1.781v1.781h-.364zM84.198 46.783a3.7 3.7 0 01-1.781 1.277c-.364 0-.4 0-.545.364-.654 0-1.381.363-2.254.363a5.417 5.417 0 01-2.908-.8 2.6 2.6 0 01-1.018-2.227 2.264 2.264 0 01.4-1.6 4.9 4.9 0 011.161-1.121 2.938 2.938 0 011.672-.545h5.2c0-.545 0-.981-.473-1.236a1.687 1.687 0 00-1.345-.436h-.436c-.473 0-.872 0-1.127.364-.364 0-.545.473-.582.909H76.31a2.877 2.877 0 011.672-2.435 8.9 8.9 0 013.889-.727h.473a7.893 7.893 0 014.108.909 3.2 3.2 0 011.309 2.835v5.78a.646.646 0 00.364.545h-3.527c0-.364 0-.4-.364-.582v-1.019zm-2.326-.436a3.066 3.066 0 001.563-.582 2.217 2.217 0 00.691-1.672v-.363h-2.29c-.582 0-1.018 0-1.345.364a.96.96 0 00-.909 1.054c0 .364 0 .618.473.836.363 0 .8.363 1.418.363h.364zm-26.645.436a4.123 4.123 0 01-1.854 1.277.646.646 0 00-.545.364c-.618 0-1.381.363-2.254.363a4.964 4.964 0 01-2.835-.8 2.456 2.456 0 01-1.054-2.227 2.264 2.264 0 01.4-1.6 5.518 5.518 0 011.127-1.127 3.259 3.259 0 011.672-.545h5.234c0-.545 0-.981-.509-1.236a1.687 1.687 0 00-1.345-.436h-.436c-.473 0-.836 0-1.127.364-.364 0-.473.473-.582.909h-3.816a2.811 2.811 0 011.672-2.429 8.952 8.952 0 013.853-.727h.509a7.745 7.745 0 014.071.909 3.221 3.221 0 011.345 2.833v5.78a.646.646 0 00.363.545H55.59v-1.6zm-2.4-.436a2.824 2.824 0 001.563-.582 2.01 2.01 0 00.727-1.672v-.364h-2.326c-.545 0-.945 0-1.272.364-.654 0-.909.509-.909 1.054 0 .364 0 .618.4.836.364 0 .836.363 1.454.363h.364zm-11.34-3.272a3.8 3.8 0 00-.727-2.181 2.448 2.448 0 00-1.963-.8 3 3 0 00-2.072.8 3.382 3.382 0 00-.691 2.29 4.354 4.354 0 00.691 2.254 2.6 2.6 0 002 .763 2.73 2.73 0 001.963-.836 3.274 3.274 0 00.727-2.29zm-2.69-4.762h1.49a4.656 4.656 0 015.053 5.053 5.566 5.566 0 01-1.273 3.894 4.934 4.934 0 01-3.671 1.381 2.439 2.439 0 01-1.6-.364c-.364 0-.618-.364-.836-.364a4.861 4.861 0 01-1.89-1.563v1.89h-3.853v-14.1h3.744v5.634a5.324 5.324 0 011.892-1.243.83.83 0 00.836-.363zm-29.371-4.18h2.744l6.9 14.1h-4.53l-1.236-2.872H5.598l-1.345 2.876H0l7.379-14.1h2.043zm0 8.506h2.581l-2.421-5.453-.145.364-2.53 5.2h2.53zm10.287 5.6v-14.1h3.77v14.1h-3.77M109.171 0a36.489 36.489 0 00-10.723 2.152c-9.524 3.4-15.485 8.724-19.266 14.7-4 5.925-2.654 11.57 5.743 11.752a34.174 34.174 0 0015.085-4.326s-12.1 3.453-16.576.945a2.136 2.136 0 01-1.127-1.708c0-2.083 3.49-4.238 5.453-4.936v-3.552a13.777 13.777 0 0012.868-2.05 1.666 1.666 0 01.364 1.294h.691a2.452 2.452 0 00-2.33-2.911 4.192 4.192 0 01.909.916v.109a12.271 12.271 0 01-10.8 1.89l2.908-2.908-.836-2.05a105.716 105.716 0 0118.648-5.009l-1.775-1.448.909-.593c4.835 1.4 7.961 2.363 7.779 4.885a7.72 7.72 0 01-.509 1.469c-1.345 2.806-5.489 7.379-7.161 9.324a39.882 39.882 0 00-3.017 3.715 7.232 7.232 0 00-1.272 3.355c0 8.4 24.609-3.889 29.335-7.125-6.979 3.017-14.54 5.925-22.864 6.47-2.29 0-2.072-1.091-.727-2.915 3.126-4.253 9.124-10.127 9.342-14.275.363-5.438-5.125-7.216-10.8-7.161zm7.382 4.944zm.364.48zm0 .523zm0 .589z" fill="#757575"/></svg>