<svg xmlns="http://www.w3.org/2000/svg" width="108.941" height="51"><path d="M27.913 21.12a8.836 8.836 0 005.508 8.045 21.423 21.423 0 01-2.84 5.655c-1.711 2.422-3.487 4.835-6.284 4.885-2.749.049-3.632-1.578-6.774-1.578s-4.123 1.529-6.724 1.627c-2.7.1-4.756-2.618-6.48-5.032-3.525-4.936-6.219-13.947-2.6-20.03a10.1 10.1 0 018.494-4.984c2.65-.048 5.152 1.728 6.773 1.728s4.66-2.137 7.858-1.823a9.694 9.694 0 017.504 3.945 8.965 8.965 0 00-4.436 7.563M22.747 6.347A8.573 8.573 0 0024.882 0a9.3 9.3 0 00-6.044 3.014 8.153 8.153 0 00-2.177 6.149 7.71 7.71 0 006.089-2.815M43.492 3.47q1.746-.292 3.515-.483a38.277 38.277 0 014.231-.215 18.441 18.441 0 015.684.778 10.231 10.231 0 013.925 2.228 9.156 9.156 0 012.06 3.058 10.5 10.5 0 01.741 4.077 11.063 11.063 0 01-1.016 4.881 10.149 10.149 0 01-2.773 3.513 11.714 11.714 0 01-4.175 2.119 18.954 18.954 0 01-5.272.7 21.2 21.2 0 01-4.337-.375v15.444h-2.583zm2.583 18.025a11.5 11.5 0 002.088.374q1.152.107 2.47.107 4.942 0 7.661-2.253a8.073 8.073 0 002.719-6.6 8.673 8.673 0 00-.716-3.648 6.554 6.554 0 00-2.03-2.548 9.355 9.355 0 00-3.129-1.499 14.74 14.74 0 00-4.01-.511 28.971 28.971 0 00-3.02.135q-1.263.133-2.031.295zm38.102 11.583q0 1.556.055 3.111a20.031 20.031 0 00.33 3.005h-2.416l-.385-3.648h-.109a9.192 9.192 0 01-1.263 1.5 9.932 9.932 0 01-1.785 1.368 9.511 9.511 0 01-2.307.993 10.116 10.116 0 01-2.829.375 8.612 8.612 0 01-3.378-.616 6.913 6.913 0 01-2.389-1.61 6.549 6.549 0 01-1.4-2.279 7.5 7.5 0 01-.466-2.576 7.84 7.84 0 013.929-7.023q3.927-2.467 11.836-2.36v-.7a16.248 16.248 0 00-.194-2.334 7.245 7.245 0 00-.85-2.494 5.447 5.447 0 00-1.977-1.985 6.825 6.825 0 00-3.571-.8 11.846 11.846 0 00-6.423 1.932l-.825-1.879a12.326 12.326 0 013.624-1.689 14.726 14.726 0 013.9-.51 9.579 9.579 0 014.479.912 7.363 7.363 0 012.717 2.359 8.7 8.7 0 011.345 3.248 18.324 18.324 0 01.356 3.568v10.139zm-2.581-7.671a36.475 36.475 0 00-4.367.16 16.19 16.19 0 00-4.2.939 8.046 8.046 0 00-3.185 2.119 5.307 5.307 0 00-1.263 3.7 4.873 4.873 0 001.591 4.024 5.529 5.529 0 003.566 1.295 8.841 8.841 0 002.855-.429 7.518 7.518 0 002.2-1.153 7.4 7.4 0 001.564-1.637 7.652 7.652 0 00.962-1.877 7.216 7.216 0 00.275-1.557v-5.579zm7.63-11.964l6.7 16.738q.549 1.394 1.044 2.869t.878 2.711h.109q.385-1.182.879-2.656t1.1-3.032l6.261-16.629h2.741l-7.63 18.888q-1.049 2.736-2.17 5.446-.925 2.247-2.059 4.4a31.366 31.366 0 01-2.113 3.46 14.482 14.482 0 01-2.391 2.628 12.946 12.946 0 01-2.829 1.958q-1.288.619-1.729.779l-.879-2.095a21.835 21.835 0 002.2-1.126 11.917 11.917 0 002.362-1.823 21.966 21.966 0 002.169-2.548 17.813 17.813 0 002.115-3.837 4.274 4.274 0 00.33-1.126 3.161 3.161 0 00-.33-1.126l-9.5-23.874h2.748z" fill="#757575"/></svg>