<svg xmlns="http://www.w3.org/2000/svg" width="114.665" height="37"><path d="M17.065 31.05a4.772 4.772 0 00-2.914-4.539c2.567-1.349 2.239-4.723 2.239-4.723-.276-5.2-6.606-4.956-6.606-4.956H.004v19.31h11.037c6.493 0 6.027-5.091 6.027-5.091m-6.244 1.5h-6.62v-4.167h6.582c2.423 0 2.322 4.11 0 4.11m-.215-7.943h-6.4V20.53h6.373c2.46 0 2.5 4.018.031 4.018zm16.96-2.546h-8.577v2.914h7.539s1.779.46 1.779 1.595v1.012h-6.815a4.477 4.477 0 00-3.536 3.435 5.841 5.841 0 00.153 2.515 4.172 4.172 0 003.214 2.484h10.845v-9.971a5.067 5.067 0 00-4.6-3.956m.736 11.164h-5.478c-1.831 0-1.6-2.975.153-2.975h5.36v2.975zm5.8-12.7h4.018v-3.549h-4.022zm0 15.427h4.018V22.033h-4.022zm80.447-18.371h-7.238v-1.427h-3.4v1.337h-8.29v18.555h3.006V19.856h15.918zm-1.963 3.834v-1.071h-2.883v1.073h-6.016v-1.043h-2.791v1.043h-1.84v2.086h1.81v3.956h10.09a1.656 1.656 0 001.595-1.472v-2.484h2.147v-2.086h-2.147zm-2.883 3.527s-.307.491-.613.491h-5.433v-1.961h6.042zm-10.248 5.37l4.662 2.7a7.458 7.458 0 01-1.963.92h-3.1v2.055h4.232a27.487 27.487 0 003.558-1.411 7.08 7.08 0 002.791 1.227h4.754v-2.057h-3.552a19.161 19.161 0 01-1.871-.705l5.49-3.128v-1.687h-15zm9.661 0l-2.638 1.38-2.423-1.38zm-15.611-10v-2.79h-18.4v2.852h7.913l-.705 1.687h-6.75v14.051h15.979c1.656 0 1.5-1.717 1.5-1.717V22.033h-6.714l.583-1.748h6.655zm-3.558 12.79s-.307.46-.521.46H78.781v-3.281h11.133zm0-5.521H78.843v-3.069h11.071zM52.151 0c-2.239 0-4.018 2.546-4.018 5.689 0 3.171 1.779 5.714 4.018 5.714 2.208 0 3.987-2.546 3.987-5.711 0-3.144-1.779-5.686-3.987-5.686zm10.765.9c-2.055 0-4.355 3.073-4.6 5.128-.307 2.7.4 5.367 3.374 5.747 2.944.377 4.846-2.769 5.245-5.162a5.423 5.423 0 00-3.621-5.65 1.411 1.411 0 01-.4-.061zM43.594 8.52h-.307c-3.22.307-3.711 4.975-3.711 4.975-.429 2.168 1.043 6.793 5.06 5.935 4.048-.859 3.527-5.652 3.4-6.686-.302-1.56-1.989-4.26-4.442-4.224zm25.333 2.677c-3.527 0-4.018 3.26-4.018 5.557 0 2.214.307 5.251 4.6 5.159 4.386 0 3.9-4.968 3.9-6.119s-.951-4.6-4.478-4.6zm-12.452 3.825a6.215 6.215 0 00-5.306 2.962c-1.687 2.883-4.386 4.692-4.754 5.183-.4.491-5.551 3.251-4.386 8.311 1.135 5.091 5.153 5 5.153 5a21.521 21.521 0 006.379-.491 12.675 12.675 0 016.41.307s8 2.7 10.182-2.484c2.178-5.153-1.227-7.821-1.227-7.821a39.964 39.964 0 01-7.238-7.391c-1.626-2.478-3.466-3.42-5.214-3.456zm-3.619 5.91h2.331v12.575h-5.183c-3.067 0-4.294-3.711-3.68-5.827a4.616 4.616 0 013.742-3.374h2.791zm6.042 3.652v5.981c0 .613.951.736.951.736h2.484v-6.658h2.576v8.864h-6.011c-2.3-.613-2.423-2.27-2.423-2.27v-6.594h2.423zm-8.342 1.779c-2.668 0-2.73 5.122 0 5.122h2.086v-5.124z" fill="#757575"/></svg>