<svg xmlns="http://www.w3.org/2000/svg" width="117.144" height="44.772"><path d="M104.077 44.473c-2.2-.55-3.209-.917-3.209-1.146 0-.138.734-2.476.734-2.476l.734.367c2.568 1.33 6.923 1.238 9.032-.138a6.211 6.211 0 002.292-3.186c.321-1.091.642-5.14.367-5.14a9.469 9.469 0 00-1.1 1.073c-3.118 3.4-9.17 3.021-11.737-.738-1.284-1.894-1.6-3.076-1.6-6.263a12.373 12.373 0 01.41-4.255 10.621 10.621 0 013.164-4.736 8.911 8.911 0 017.2-1.284 6.637 6.637 0 013.072 2.137c.229.33.458.6.55.6s.138-.587.138-1.307v-1.3h3.026v9.592c0 8.927-.046 9.706-.413 11.192-1.055 4.214-2.8 6.047-6.694 6.919a13.14 13.14 0 01-5.96.092zm5.823-11.031a6.427 6.427 0 003.576-3.278c.55-1.082.55-1.256.55-4.158 0-2.774-.046-3.113-.458-4.016a5.889 5.889 0 00-5.639-3.209c-3.622.509-5.731 3.838-5.41 8.532.183 2.705 1.33 4.8 3.026 5.676a5.033 5.033 0 004.356.454zM0 37.5L.17 0l.3.133 9.679 3.008.078 25.29L.789 36.78l-.138.307 24.066-12.576-6.937-3.521-4.012-9.1 22.2 6.68v10.925L10.206 44.611zm56.761-1.449a6.231 6.231 0 01-3.53-2.214c-.229-.371-.5-.679-.6-.679a2.608 2.608 0 00-.183 1.307v1.307h-2.931l.046-14.085c.046-11.086.138-14.066.321-13.993.138.05.779.243 1.421.426l1.146.335.046 5.809.046 5.8.917-1.137a6.438 6.438 0 012.292-1.848c1.33-.674 1.467-.7 3.53-.7 1.972 0 2.2.046 3.439.66 2.888 1.426 4.31 4.269 4.264 8.785 0 4.8-2.017 8.523-5.227 9.743a12.967 12.967 0 01-5 .481zm3.622-2.852c2.43-1.256 3.9-4.365 3.668-7.877a7.786 7.786 0 00-.734-3.356 6.1 6.1 0 00-2.517-2.732 6.209 6.209 0 00-4.768.046 6.691 6.691 0 00-3.164 3.7 16.536 16.536 0 00-.092 6.868 6.541 6.541 0 003.9 3.75 6.622 6.622 0 003.714-.385zM71.112 16.68h3.026l.092 19.087h-3.118zm8.253 9.541V16.68h3.025v1.5a3.8 3.8 0 00.138 1.5 2.272 2.272 0 00.688-.779c1.742-2.5 5.823-3.4 8.711-1.921a4.68 4.68 0 011.88 1.577c1.238 1.894 1.284 2.3 1.375 10.123l.092 7.084h-3.026l-.092-6.68c-.046-4.722-.138-6.919-.321-7.487a4.612 4.612 0 00-2.98-2.7 5.452 5.452 0 00-6.281 4c-.092.39-.183 3.429-.183 6.786v6.08h-3.027v-9.542zM74.5 10.2a1.844 1.844 0 11-.553-1.316A1.844 1.844 0 0174.5 10.2z" fill="#757575"/></svg>