<svg xmlns="http://www.w3.org/2000/svg" width="107.285" height="35"><path d="M13.775 27.152a12.4 12.4 0 009.467-3.805 12.254 12.254 0 003.215-8.675 12.127 12.127 0 00-.2-2.321H13.775v3.709h8.874a7.764 7.764 0 01-2.018 4.669 9.1 9.1 0 01-6.855 2.715 9.87 9.87 0 010-19.738 9.455 9.455 0 016.687 2.652l2.617-2.616A12.949 12.949 0 0013.775 0 13.764 13.764 0 000 13.576a13.766 13.766 0 0013.775 13.576zm22.784 0a8.742 8.742 0 10-8.78-8.744 8.637 8.637 0 008.78 8.744zm0-3.444a5.061 5.061 0 01-4.939-5.3 4.947 4.947 0 119.87 0 5.058 5.058 0 01-4.931 5.301zM55.7 27.152a8.742 8.742 0 10-8.778-8.744 8.638 8.638 0 008.778 8.744zm0-3.444a5.06 5.06 0 01-4.937-5.3 4.947 4.947 0 119.87 0 5.058 5.058 0 01-4.933 5.301zM74.5 35c4.5 0 8.314-2.646 8.314-9.106V10.2h-3.645v1.424h-.132a6.065 6.065 0 00-4.6-1.954 8.75 8.75 0 000 17.483 5.967 5.967 0 004.6-1.987h.132v1.258c0 3.347-1.788 5.132-4.669 5.132a4.841 4.841 0 01-4.4-3.115l-3.342 1.393A8.33 8.33 0 0074.5 35zm.262-11.291a5.017 5.017 0 01-4.862-5.265 5.055 5.055 0 014.868-5.328c2.619 0 4.672 2.249 4.672 5.328-.003 3.049-2.056 5.265-4.675 5.265zM89.3.927h-3.841v25.7H89.3zm10.53 26.225a8.693 8.693 0 007.285-3.874l-2.983-1.984a4.994 4.994 0 01-4.3 2.414A4.444 4.444 0 0195.6 21.06l11.689-4.837-.4-.991c-.728-1.954-2.95-5.563-7.483-5.563-4.5 0-8.245 3.546-8.245 8.739a8.555 8.555 0 008.673 8.744zm-4.868-9.007a4.8 4.8 0 014.57-5.1 3.392 3.392 0 013.248 1.854zm0 0" fill="#757575"/></svg>