<svg xmlns="http://www.w3.org/2000/svg" width="128.167" height="40"><path d="M67.547 10.05a2.6 2.6 0 11-2.6-2.6 2.6 2.6 0 012.6 2.6zM56.816 15.3v.641a5 5 0 00-3.884-1.6 7.665 7.665 0 00-7.768 7.928 7.665 7.665 0 007.768 7.928 4.863 4.863 0 003.884-1.642v.681a.547.547 0 00.561.561h3.243V14.735h-3.244a.573.573 0 00-.561.561zm0 9.65a3.979 3.979 0 01-3.243 1.642 4.329 4.329 0 110-8.649 4.089 4.089 0 013.243 1.642zm6.206-10.21h3.844v15.05h-3.844zm57.417-.4a5 5 0 00-3.884 1.6V7.487h-3.844v22.3h3.243a.573.573 0 00.561-.561v-.681a4.958 4.958 0 003.883 1.645 7.688 7.688 0 007.768-7.928 7.68 7.68 0 00-7.728-7.928zm-.641 12.207a3.922 3.922 0 01-3.243-1.642V19.54a4.345 4.345 0 013.243-1.64 4.329 4.329 0 110 8.649zm-9.089-5.686v8.969h-3.844V21.3c0-2.482-.8-3.483-2.963-3.483a4.3 4.3 0 00-3.123 1.481V29.79h-3.844V14.735h3.043a.573.573 0 01.561.561v.641a5.517 5.517 0 014.084-1.6 6.233 6.233 0 014.2 1.441c1.361 1.121 1.882 2.563 1.882 5.085zm-23.1-6.527a5 5 0 00-3.884 1.6V7.487h-3.844v22.3h3.243a.573.573 0 00.561-.561v-.681a4.958 4.958 0 003.884 1.642 7.688 7.688 0 007.768-7.928 7.632 7.632 0 00-7.728-7.928zm-.641 12.212a3.922 3.922 0 01-3.243-1.642V19.54a4.345 4.345 0 013.243-1.642 4.329 4.329 0 110 8.649zM76.556 14.334a6.129 6.129 0 011.762.2V18.1s-3.2-1.081-5.205 1.2v10.53h-3.845v-15.1h3.243a.573.573 0 01.561.561v.641a5.259 5.259 0 013.483-1.6zm-39.92 14.094c-.2-.48-.4-1-.6-1.441-.32-.721-.641-1.4-.921-2.042l-.04-.04a419.435 419.435 0 00-8.845-18.1l-.12-.24a79.82 79.82 0 01-.961-1.882 11.509 11.509 0 00-1.441-2.2A6.467 6.467 0 0018.622 0a6.72 6.72 0 00-5.124 2.4 13.8 13.8 0 00-1.441 2.2c-.32.641-.641 1.281-.961 1.882l-.12.24c-3.083 6.006-6.086 12.092-8.849 18.1l-.04.08c-.28.641-.6 1.321-.921 2.042q-.3.661-.6 1.441a8.994 8.994 0 00-.48 4.324 8.509 8.509 0 005.205 6.647A8.223 8.223 0 008.532 40a9.109 9.109 0 001.041-.08 10.579 10.579 0 004-1.361 20.277 20.277 0 004.965-4.164 21.039 21.039 0 004.965 4.164 10.579 10.579 0 004 1.361 9.109 9.109 0 001.041.08 8.052 8.052 0 003.239-.641 8.493 8.493 0 005.215-6.646 7.564 7.564 0 00-.362-4.285zm-18.054 2.083a19.752 19.752 0 01-4.044-7.447 6.459 6.459 0 01-.12-2.442 3.885 3.885 0 01.641-1.682 4.251 4.251 0 013.524-1.762 4.1 4.1 0 013.524 1.762 3.885 3.885 0 01.641 1.682 6.428 6.428 0 01-.12 2.442 20.352 20.352 0 01-4.046 7.447zm15.972 1.882a5.953 5.953 0 01-3.64 4.685 6.063 6.063 0 01-3.043.4 7.874 7.874 0 01-3.043-1.041 18.7 18.7 0 01-4.565-3.884 22.581 22.581 0 004.845-8.853 10.036 10.036 0 00.2-3.4 6.5 6.5 0 00-1.081-2.723 6.747 6.747 0 00-5.646-2.843 6.85 6.85 0 00-5.646 2.843 6.5 6.5 0 00-1.08 2.723 8.313 8.313 0 00.2 3.4 23.234 23.234 0 004.843 8.893 17.989 17.989 0 01-4.565 3.884 7.874 7.874 0 01-3.043 1.041 6.4 6.4 0 01-3.043-.4 5.95 5.95 0 01-3.644-4.685 6.628 6.628 0 01.36-3.123c.12-.4.32-.8.521-1.281.28-.641.6-1.321.921-2l.04-.08a438.15 438.15 0 018.809-17.978l.12-.24c.32-.6.641-1.241.961-1.842a8.8 8.8 0 011.121-1.762 4.2 4.2 0 016.406 0 8.8 8.8 0 011.121 1.762c.32.6.641 1.241.961 1.842l.12.24a524.046 524.046 0 018.765 18.018v.04c.32.641.6 1.361.921 2 .2.48.4.881.521 1.281a6.765 6.765 0 01.28 3.083z" fill="#757575"/></svg>