<svg xmlns="http://www.w3.org/2000/svg" width="132.362" height="51"><path d="M121.315 18.91c-.118 3.952-4.121 6.4-4.121 10.364.177.137.294.312.471.225 3.179-3.228 6.358-7.821 10.95-9.2a3.419 3.419 0 012.767 1.644 9.444 9.444 0 01-1 9.97c-2.355 2.68-6.358 5.366-10.95 4.911a57.217 57.217 0 00-4 13.713c-.353.987-1.236.11-1.825-.055-3.944-2.96-.706-10.633-.471-11.614.294-.981 1.354-3.294 2.119-5.234-1.825-3.086-.706-6.818.824-9.679a19.73 19.73 0 014.71-5.305.612.612 0 01.53.263zm7.889 4.911c-.589-.093-.824.63-1.3.767-2.3 2.368-4.533 4.73-5.652 7.553 1.531.175 2.826-.734 4.062-1.233a6.585 6.585 0 003.591-6c-.118-.411-.53-.723-.706-1.085M44.328 10.879c4.5 3.426 10.35 9.29 9.62 15.988-.877 5.322-6.935 9.323-12.063 10.594a36.633 36.633 0 01-16.308.137c-.341.86-.689 1.907-1.766 2.269a2.431 2.431 0 01-2.09-.312c-1.519-1.321-.3-3.869-2.49-4.686-4.3-1.683-8.937-5-11.139-9.1a2.372 2.372 0 01.589-2.269c3.367-2.477 7.612-3.53 11.863-4.259.241.066.147-.263.341-.329.247-2.7.347-5.53 1.272-7.969a.773.773 0 011.077-.2c2.679 1.907 1.413 5.464 2.584 8.1 5.128.2 10.256.395 14.312 3.1a3.982 3.982 0 011.266 4.2 3.737 3.737 0 01-3.179 2.039c-.877 0-2.532.082-2.437-.543s2.985-1.65 2.1-2.5c-1.276-1.229-7.658-1.955-11.615-2.405-.483-.066-.936.066-.936.543-.094 3.453-.389 7.273.247 10.589a.892.892 0 00.589.544c6.988 1.041 14.359.455 19.828-3.272a7.519 7.519 0 002.932-7.547c-2.2-8.238-11.427-13.176-19-16.338A56.69 56.69 0 005.649 3.11c-1.389.066-3.6.526-3.613.987s2.5.329 2.194 1.184-2.854.329-3.611.132-.683-1.25-.489-1.842C2.036.41 7.35.142 9.752.01 23.034-.259 35.88 4.422 44.328 10.878zM20.397 23.063a31.269 31.269 0 00-10.062 1.436c-.63.23-1.419.866-.93 1.644a15.96 15.96 0 004.792 3.815 19.043 19.043 0 006 2.362 49.212 49.212 0 00.442-8.906c-.2-.093 0-.274-.247-.351m93.619-1.842c.294.395.53.921 0 1.184-2.178.915-5.122.526-7.712.778a2.328 2.328 0 00-.883 2.275 1.04 1.04 0 00.706.312c1.531.093 3.886-.674 4.945.685.177.406-.059 1.918-.765 1.957-1.943.225-5.063-.225-5.946.225-1.236.734-1.06 2.143-1.531 3.278.824.5 1.707 0 2.708-.143 1.766-.269 3.768-.767 5.593-.406.353.592.824 1.233.471 1.957-3.061 2.269-7.065 4.6-11.3 2.954-1.531-.663-2.237-2.91-1.707-4.818.294-1.365 1.884-2.686.942-4.138a1.109 1.109 0 01.765-1.321c1.648 0 1.3-1.863 2.119-2.724-.883-.937-3.238-.937-3-2.845 1.119-.526 2.532-.329 3.709-.526a32.293 32.293 0 019.066-.532c.589.066 1.413 1.189 1.825 1.847m-54.221.658a94.139 94.139 0 01.589 12.99c-.059.586-.824.723-1.3.954-.765.132-1.825 0-2.108-.406-1.13-1.688-.736-3.957-.836-6 .147-3.234.1-6.747 1.06-9.712.177-.46.765-.855 1.177-.592 1.177.592 1.354 1.65 1.413 2.768m21.312-1.71c0 .658-.53 1.513-1.06 1.578-4.651.723-9.891.329-14.306 1.666-.118.493.53.586.824.723 3.827.548 7.771.68 11.362 1.551 2 .455 2.708 2.587 2.826 4.357a4.427 4.427 0 01-1.943 4.045c-3.591 2.143-9.125 2.05-12.775.093-1.413-.729-2.767-1.907-2.885-3.365a2.75 2.75 0 011.42-2.493 13.676 13.676 0 0110.891 1.091c.235.91-.824.855-1.354 1.178-3.356 1.82-5.887-2.05-9.007-.636-.471.274-.765 1.03-.235 1.277 3.827 1.584 8.124.455 11.951-.548.412-.137 1-.548 1-.954-.118-1.458-1.884-1.776-3.061-2.181-3.238-.778-6.947-.778-10.479-1.1-.706-.137-1.59-.575-1.766-1.091a3.4 3.4 0 01.471-3.486c4.53-3.75 11.418-3.421 17.189-2.435.412.132.824.263.942.729m14.836 1.052c1.531 3.557 2.826 9.142 0 12.557-.824.817-2.237 1.573-3.061.954-3.238-2.412-4.592-5.864-6.594-8.961-.294-.132-.294.23-.471.373-.706 3.135.648 7.224-1.648 9.679a1.7 1.7 0 01-1.943-1.091c-1.177-3.228 0-6.593.353-9.822.589-1.633.883-3.557 2.473-4.741 2.355.855 3.591 3.426 5 5.289a34.029 34.029 0 003.061 4.275c.942-.411.471-1.661.471-2.412a57.054 57.054 0 00-2.119-8.472c-.059-.789-.471-1.973.353-2.433 2.178.921 3.12 3.025 4.121 4.807M66.565 5.61a4.085 4.085 0 012.473.86 2.923 2.923 0 01.706 3.294c-1.707 3.294-5.769 5.464-8.536 6.188a9.386 9.386 0 01-5.257-.2c-.736.46-1.348 1.781-2.249 1.189-1.3-.926-.171-2.373-.918-3.426-.159-.263-.548-.263-.736-.592-1.024-2.11.241-4.089 1.654-5.667 2.363-2.504 9.153-5.206 12.863-1.646zm-7.83 1.65a6.6 6.6 0 00-3.609 1.578c-.807.926-1.325 1.781-.836 2.636 1.713-1.184 2.537-2.768 4.445-3.82 0-.132.294-.263 0-.395zm7.948.395c-3.356-.263-5.887 2.11-8.3 4.412-.118.329-1 .729-.353 1.189a11.552 11.552 0 008.654-2.636 1.863 1.863 0 00.824-2.176 1.727 1.727 0 00-.824-.789" fill="#757575"/></svg>