<svg xmlns="http://www.w3.org/2000/svg" width="68.893" height="69"><path d="M29.659 40.5a.23.23 0 00.066-.24A157.484 157.484 0 0010.556 9.138s-6.03 5.724-5.6 11.45A10.13 10.13 0 008.445 27.5c5.254 5.088 17.954 11.6 20.929 13.065a.608.608 0 00.285-.065zm-1.967 4.328a.349.349 0 00-.284-.153l-21.161.7c2.3 4.109 6.168 7.278 10.189 6.36 2.8-.7 9.07-5.114 11.147-6.6a.275.275 0 00.109-.308zm.307-1.859c.109-.153-.087-.306-.087-.306C18.623 36.39.612 26.708.612 26.708A12.62 12.62 0 0011.89 43.122c.328.087 12.611 0 15.889 0 .131 0 .22-.153.22-.153zm8.458-4.175c.153.066.306-.153.306-.153 2.011-2.951 11.147-16.5 13-24.785 0 0 1.005-4.022 0-6.734a9.677 9.677 0 00-6.972-6.5S41.174.235 39.469.003c0 0-6.273 8.054-3.257 38.554h.066c0 .24.175.24.175.24zm4.942 5.88a.25.25 0 00-.219.153s0 .24.066.306c2.011 1.486 8.218 5.748 11.147 6.6 0 0 5.508 1.858 10.229-6.273zM39.232 40.5a.425.425 0 00.306 0c3.016-1.464 15.649-7.912 20.916-13a10.389 10.389 0 003.475-6.972c.328-5.879-5.573-11.385-5.573-11.385a155.6 155.6 0 00-19.19 31.055h.066a.212.212 0 000 .302zm28.959-13.791c-1.311.721-2.666 1.377-3.934 2.186-1.661.874-3.278 1.792-4.918 2.71a383.084 383.084 0 00-8.262 4.765c-1.049.525-2.011 1.2-3.038 1.792-.546.35-2.4 1.53-2.819 1.683-.678.568-1.508.9-2.186 1.443-.743.328-1.333.94-2.033 1.311-.393.372.109.568.459.459h16.439a12.928 12.928 0 007.366-3.65 13.871 13.871 0 002.033-2.732 10.762 10.762 0 001.2-3.1 17.767 17.767 0 00.328-1.88 8.838 8.838 0 000-2.011 4.449 4.449 0 00-.175-1.421 5.376 5.376 0 00-.437-1.552zm-35.8 12.086c-.153.066-.306-.153-.306-.153-2.011-2.951-11.125-16.502-12.986-24.785 0 0-1.005-4.022 0-6.734a9.675 9.675 0 016.95-6.5s1.617-.387 3.322-.619c0 0 6.273 8.054 3.257 38.554h-.066c.003.237-.171.237-.171.237zm36.5 30.052V57.766h-2.623v11.081zm-11.846-6.6h6.972v1.945h-6.972c0 2.011.852 2.71 2.863 2.71h4.109v1.945h-4.262a5.7 5.7 0 01-3.716-.94 5.13 5.13 0 01-1.858-4.415c0-3.869 1.77-5.726 5.661-5.726h4.175v1.945h-4.109c-1.858 0-2.776.852-2.863 2.535zM37.68 57.766l2.8 8.524 2.317-8.524h3.016l2.645 8.524 2.623-8.524h2.557l-3.716 11.081h-3.1l-2.557-8.283-2.229 8.283h-3.045l-4.022-11.081zm-6.251 0l5.092 11.081h-2.775L32.653 66.2h-5.224l-1.071 2.645h-2.666l5.071-11.081zm-3.191 6.513h3.561l-1.814-4.262zm-12.961.153c0 1.923.612 2.776 2.688 2.776 2.1 0 2.71-.852 2.71-2.776v-6.666h2.514V64.5a4.343 4.343 0 01-.7 2.951c-.984 1.071-2.426 1.552-4.524 1.552-2.076 0-3.519-.481-4.5-1.552-.568-.612-.7-1.552-.7-2.951v-6.732h2.513zm-7.1-2.186v-4.481h2.513v11.081H8.174v-4.568H2.553v4.568H.026v-11.08h2.527v4.481z" fill="#757575"/></svg>